<?xml version="1.0" encoding="UTF-8"?>
<svg xmlns="http://www.w3.org/2000/svg" version="1.1" viewBox="0 0 600 600">
  <!-- Generator: Adobe Illustrator 28.6.0, SVG Export Plug-In . SVG Version: 1.2.0 Build 709)  -->
  <g>
    <g id="Ebene_2" display="none">
      <rect width="600" height="600" fill="#23354c"/>
    </g>
    <g id="Ebene_1">
      <g>
        <path d="M176.158,92.135l2.088.085v-.042l-2.088-.042ZM295.304,94.37c.056.17.084.34.125.509l2.047-.467-2.172-.042Z" fill="#fff"/>
        <path d="M597.137,272.866c-7.073-8.547-20.424-1.854-38.899,7.415-14.98,7.514-37.451,18.778-45.011,13.429,0-.014-.014-.014-.014-.014-.195-.141-.376-.283-.543-.439-.056-.057-.111-.099-.139-.156-5.625-5.618.404-24.551,4.817-38.419,5.527-17.334,10.288-32.306.807-39.183-8.882-6.439-24.768.679-31.186,4.047-21.329,11.151-46.222,35.985-46.222,69.196,0,17.462,6.738,33.056,17.096,45.409-2.241,2.759-4.539,5.632-6.905,8.646-20.132,25.57-43.396,58.301-67.425,94.738-31.367-24.339-70.335-40.202-113.076-46.287-.473-8.052-2.367-15.608-5.36-22.231,48.797-14.434,86.944-58.612,98.012-114.125,2.812,1.542,5.875,2.391,9.077,2.391,14.674,0,26.174-17.674,26.174-40.23s-11.5-40.23-26.174-40.23c-3.898,0-7.588,1.245-10.873,3.509-4.163-16.613-10.79-32.094-19.421-45.905,15.788-5.08,23.278-11.349,23.278-19.259,0-10.203-12.474-17.674-39.191-23.419-.084.071-.167.142-.251.212.056-.071.111-.156.167-.226.028,0,.056.014.084.014,11.319-9.254,17.82-20.348,17.82-32.391,0-32.603-47.697-58.286-109.331-59.362,16.136,10.415,30.406,24.183,41.419,39.961,11.374,16.302,19.324,34.457,23.64,53.985l-2.033.467-2.047.467c-.042-.17-.07-.34-.125-.509-4.204-18.778-11.89-36.254-22.846-51.947-11.11-15.934-25.631-29.73-42.045-39.975-14.034,8.618-26.104,20.49-34.945,34.386-13.212,20.787-16.665,41.56-17.222,55.343v.042l-4.177-.17c.585-14.32,4.149-35.914,17.89-57.522C200.744,20.717,212.592,8.844,226.361.014c-.251,0-.515.014-.766.014-61.23,1.274-108.51,26.872-108.51,59.333,0,12.042,6.502,23.136,17.82,32.391-26.717,5.745-39.191,13.217-39.191,23.419,0,7.91,7.49,14.179,23.278,19.259-8.632,13.811-15.259,29.292-19.435,45.919-3.286-2.278-6.975-3.523-10.873-3.523-14.674,0-26.174,17.674-26.174,40.23s11.5,40.23,26.174,40.23c3.216,0,6.265-.849,9.091-2.406,11.054,55.527,49.215,99.705,98.012,114.139-2.979,6.623-4.887,14.179-5.36,22.231-47.182,6.707-89.743,25.344-122.557,54.112C23.473,484.276,0,537.737,0,600h13.922c0-103.823,71.045-179.67,177.063-194.67,4.539-.651,9.147-1.189,13.825-1.599-.404-2.646-.613-5.391-.613-8.207,0-2.009.111-3.976.32-5.915.668-6.453,2.464-12.382,5.068-17.349,6.794,1.175,13.755,1.783,20.841,1.783s14.048-.608,20.841-1.783c2.617,4.967,4.413,10.896,5.082,17.349.209,1.939.32,3.905.32,5.915,0,2.816-.209,5.561-.613,8.207,4.678.41,9.286.948,13.825,1.599,41.474,5.872,77.588,21.042,106.185,43.556-6.697,10.302-13.435,20.858-20.173,31.612-26.633,42.523-50.593,83.956-69.207,119.502h15.788c17.96-33.777,40.528-72.564,65.17-111.903,6.376-10.188,12.781-20.235,19.171-30.056,2.506-3.863,5.012-7.698,7.518-11.49,22.053-33.48,43.59-64.003,62.469-88.47,3.954-5.123,7.602-9.764,10.999-13.938,5.082,4.302,10.637,7.981,16.428,10.924-2.255,4.825-4.803,10.075-7.657,15.806-14.855,29.787-34.625,65.348-57.025,102.649-2.52,4.203-5.082,8.448-7.685,12.693-4.399,7.231-8.896,14.504-13.463,21.792-20.675,32.999-41.627,64.499-61.132,91.993h17.138c17.904-25.598,36.866-54.268,55.731-84.394,3.439-5.505,6.85-10.981,10.191-16.429,17.166,28.825,26.605,62.97,26.605,100.823h13.922c0-42.806-11.096-81.465-32.453-114.082,25.854-42.749,48.24-83.163,64.265-116.106,1.587-3.255,3.105-6.424,4.539-9.481,5.513,1.67,11.082,2.689,16.554,2.972,1.1.057,2.186.085,3.272.085,35.502,0,62.761-29.773,75.542-55.923,4.608-9.41,11.319-26.419,4.567-34.598ZM364.052,193.637c2.478-3.283,5.36-5.137,8.117-5.137,6.947,0,14.688,11.731,14.688,28.556s-7.741,28.556-14.688,28.556c-2.353,0-4.803-1.344-7.003-3.792-4.302-4.755-7.685-13.641-7.685-24.764,0-10.146,2.812-18.424,6.571-23.419ZM95.701,241.806c-2.214,2.448-4.664,3.807-7.017,3.807-6.947,0-14.688-11.731-14.688-28.556s7.741-28.556,14.688-28.556c2.757,0,5.652,1.854,8.117,5.151,3.759,4.995,6.571,13.273,6.571,23.405,0,11.108-3.369,19.995-7.671,24.749ZM239.462,359.51c-2.979.255-6,.382-9.035.382s-6.042-.127-9.022-.382c-6.07-.495-12.029-1.514-17.82-3-48.853-12.467-86.693-58.272-93.905-115.129-.835-6.467-1.253-13.061-1.253-19.783,0-9.099.78-18,2.269-26.617,3.634-21.014,11.472-40.329,22.47-56.772,1.601.354,3.244.708,4.956,1.047,24.712,4.981,57.499,7.712,92.304,7.712s67.606-2.731,92.318-7.712c1.699-.34,3.341-.693,4.942-1.047,11.013,16.457,18.865,35.773,22.484,56.786,1.49,8.604,2.269,17.504,2.269,26.603,0,6.722-.418,13.316-1.253,19.783-7.212,56.857-45.052,102.648-93.905,115.129-5.792,1.486-11.75,2.505-17.82,3ZM568.304,319.959c-8.98,11.476-27.914,30.551-53.837,29.221-3.759-.198-7.574-.821-11.374-1.854-4.413-1.189-8.785-2.915-13.003-5.108-4.692-2.448-9.175-5.462-13.282-8.957-3.564-3.042-6.85-6.439-9.759-10.146-7.546-9.721-12.377-21.537-12.377-34.372,0-27.268,21.009-44.985,30.044-51.338,11.319-7.967,20.591-10.401,24.294-10.401.251,0,.473.014.668.042.585,3.962-3.091,15.495-5.569,23.278-4.761,14.943-9.996,31.4-6.683,43.499,1.03,3.792,2.896,7.16,5.903,9.92,3.648,3.354,8.061,4.981,12.976,5.349,13.88,1.033,31.798-7.938,48.101-16.118,6.878-3.467,16.748-8.405,21.663-9.637-.557,6.156-5.778,21.311-17.765,36.622Z" fill="#fff"/>
        <g>
          <polygon points="178.246 92.177 178.246 92.219 176.158 92.135 178.246 92.177" fill="#23354c"/>
          <path d="M297.476,94.413l-2.047.467c-.042-.17-.07-.34-.125-.509l2.172.042Z" fill="#23354c"/>
        </g>
        <path d="M512.532,293.102c.028.057.084.099.139.156.167.156.348.297.543.439-.223-.212-.446-.41-.682-.594Z" fill="#fff"/>
      </g>
    </g>
  </g>
</svg>