<?xml version="1.0" encoding="UTF-8"?>
<svg xmlns="http://www.w3.org/2000/svg" version="1.1" viewBox="0 0 600 600">
  <!-- Generator: Adobe Illustrator 28.6.0, SVG Export Plug-In . SVG Version: 1.2.0 Build 709)  -->
  <g>
    <g id="Ebene_2" display="none">
      <rect width="600" height="600" fill="#23354c"/>
    </g>
    <g id="Ebene_1">
      <g>
        <path d="M386.56,0H35.92C16.1,0,0,12.88,0,28.7v542.61c0,15.82,16.1,28.69,35.92,28.69h350.64c19.8,0,35.9-12.87,35.9-28.69v-203.76c-4.9-1.6-9.67-3.53-14.26-5.72v209.48c0,9.53-9.72,17.29-21.64,17.29H35.92c-11.94,0-21.66-7.76-21.66-17.29V28.7c0-9.54,9.72-17.3,21.66-17.3h350.64c11.92,0,21.64,7.76,21.64,17.3v115.47c4.59-2.19,9.36-4.11,14.26-5.71V28.7c0-15.82-16.1-28.7-35.9-28.7Z" fill="#fff"/>
        <path d="M38.6,61.16v33.36h41.74v-33.36h-41.74ZM66.07,83.12h-13.21v-10.56h13.21v10.56Z" fill="#fff"/>
        <rect x="108.59" y="72.14" width="251.076" height="15.581" fill="#fff"/>
        <path d="M38.6,61.16v33.36h41.74v-33.36h-41.74ZM66.07,83.12h-13.21v-10.56h13.21v10.56Z" fill="#fff"/>
        <rect x="108.59" y="72.14" width="251.076" height="15.581" fill="#fff"/>
        <path d="M38.6,118.16v33.35h41.74v-33.35h-41.74ZM66.07,140.11h-13.21v-10.55h13.21v10.55Z" fill="#fff"/>
        <rect x="108.59" y="129.133" width="251.076" height="15.581" fill="#fff"/>
        <path d="M38.6,175.15v33.35h41.74v-33.35h-41.74ZM66.07,197.1h-13.21v-10.55h13.21v10.55Z" fill="#fff"/>
        <path d="M359.03,186.13c-.93,1.35-1.83,2.73-2.71,4.14-2.3,3.69-4.41,7.51-6.3,11.44H108.6v-15.58h250.43Z" fill="#fff"/>
        <path d="M38.6,232.14v33.36h41.74v-33.36h-41.74ZM66.07,254.1h-13.21v-10.56h13.21v10.56Z" fill="#fff"/>
        <path d="M338.34,254.43c.03,1.43.09,2.85.19,4.27H108.6v-15.58h230.34c-.28,2.22-.45,4.47-.54,6.73-.02.55-.04,1.09-.05,1.63-.02.5-.02,1.01-.02,1.52,0,.48,0,.95.01,1.43Z" fill="#fff"/>
        <path d="M38.6,289.14v33.35h41.74v-33.35h-41.74ZM66.07,311.09h-13.21v-10.55h13.21v10.55Z" fill="#fff"/>
        <path d="M356.3,315.7H108.6v-15.59h239.51c1.56,3.6,3.29,7.11,5.2,10.52.95,1.72,1.95,3.41,2.99,5.07Z" fill="#fff"/>
        <path d="M38.6,346.13v33.35h41.74v-33.35h-41.74ZM66.07,368.08h-13.21v-10.55h13.21v10.55Z" fill="#fff"/>
        <rect x="108.59" y="357.105" width="251.076" height="15.581" fill="#fff"/>
        <path d="M38.6,403.12v33.36h41.74v-33.36h-41.74ZM66.07,425.08h-13.21v-10.56h13.21v10.56Z" fill="#fff"/>
        <rect x="108.59" y="414.098" width="251.076" height="15.581" fill="#fff"/>
        <path d="M38.6,460.12v33.35h41.74v-33.35h-41.74ZM66.07,482.07h-13.21v-10.56h13.21v10.56Z" fill="#fff"/>
        <rect x="108.59" y="471.091" width="251.076" height="15.581" fill="#fff"/>
        <path d="M352.42,171.21c-3.71,4.74-7.11,9.72-10.15,14.92-.8,1.36-1.58,2.74-2.33,4.14-2.01,3.71-3.85,7.53-5.49,11.44-5.19,12.26-8.57,25.44-9.83,39.21-.07.73-.13,1.47-.18,2.2-.25,3.26-.38,6.56-.38,9.88,0,1.92.04,3.81.13,5.7.01.42.04.85.06,1.27.73,14.06,3.68,27.55,8.52,40.14,1.36,3.58,2.88,7.09,4.55,10.52h15.99c-1.91-3.41-3.64-6.92-5.2-10.52-5.42-12.46-8.75-25.98-9.58-40.14-.02-.42-.05-.85-.07-1.27-.06-1.42-.1-2.84-.12-4.27-.01-.48-.01-.95-.01-1.43,0-.51,0-1.02.02-1.52.03-2.82.16-5.61.4-8.36.05-.74.12-1.47.19-2.2,1.43-13.9,5.25-27.1,11.08-39.21,1.89-3.93,4-7.75,6.3-11.44.88-1.41,1.78-2.79,2.71-4.14.21-.32.42-.63.64-.94,12.17-17.5,28.9-31.72,48.53-41.02v-15.32c-22.16,9.2-41.34,23.91-55.78,42.36ZM352.42,171.21c-3.71,4.74-7.11,9.72-10.15,14.92-.8,1.36-1.58,2.74-2.33,4.14-2.01,3.71-3.85,7.53-5.49,11.44-5.19,12.26-8.57,25.44-9.83,39.21-.07.73-.13,1.47-.18,2.2-.25,3.26-.38,6.56-.38,9.88,0,1.92.04,3.81.13,5.7.01.42.04.85.06,1.27.73,14.06,3.68,27.55,8.52,40.14,1.36,3.58,2.88,7.09,4.55,10.52h15.99c-1.91-3.41-3.64-6.92-5.2-10.52-5.42-12.46-8.75-25.98-9.58-40.14-.02-.42-.05-.85-.07-1.27-.06-1.42-.1-2.84-.12-4.27-.01-.48-.01-.95-.01-1.43,0-.51,0-1.02.02-1.52.03-2.82.16-5.61.4-8.36.05-.74.12-1.47.19-2.2,1.43-13.9,5.25-27.1,11.08-39.21,1.89-3.93,4-7.75,6.3-11.44.88-1.41,1.78-2.79,2.71-4.14.21-.32.42-.63.64-.94,12.17-17.5,28.9-31.72,48.53-41.02v-15.32c-22.16,9.2-41.34,23.91-55.78,42.36ZM352.42,171.21c-3.71,4.74-7.11,9.72-10.15,14.92-.8,1.36-1.58,2.74-2.33,4.14-2.01,3.71-3.85,7.53-5.49,11.44-5.19,12.26-8.57,25.44-9.83,39.21-.07.73-.13,1.47-.18,2.2-.25,3.26-.38,6.56-.38,9.88,0,1.92.04,3.81.13,5.7.01.42.04.85.06,1.27.73,14.06,3.68,27.55,8.52,40.14h15.34c-5.42-12.46-8.75-25.98-9.58-40.14-.02-.42-.05-.85-.07-1.27-.06-1.42-.1-2.84-.12-4.27-.01-.48-.01-.95-.01-1.43,0-.51,0-1.02.02-1.52.03-2.82.16-5.61.4-8.36.05-.74.12-1.47.19-2.2,1.43-13.9,5.25-27.1,11.08-39.21,1.89-3.93,4-7.75,6.3-11.44.88-1.41,1.78-2.79,2.71-4.14.21-.32.42-.63.64-.94,12.17-17.5,28.9-31.72,48.53-41.02v-15.32c-22.16,9.2-41.34,23.91-55.78,42.36ZM352.42,171.21c-3.71,4.74-7.11,9.72-10.15,14.92-.8,1.36-1.58,2.74-2.33,4.14-2.01,3.71-3.85,7.53-5.49,11.44-5.19,12.26-8.57,25.44-9.83,39.21-.07.73-.13,1.47-.18,2.2-.25,3.26-.38,6.56-.38,9.88,0,1.92.04,3.81.13,5.7.01.42.04.85.06,1.27.73,14.06,3.68,27.55,8.52,40.14h15.34c-5.42-12.46-8.75-25.98-9.58-40.14-.02-.42-.05-.85-.07-1.27-.06-1.42-.1-2.84-.12-4.27-.01-.48-.01-.95-.01-1.43,0-.51,0-1.02.02-1.52.03-2.82.16-5.61.4-8.36.05-.74.12-1.47.19-2.2,1.43-13.9,5.25-27.1,11.08-39.21,1.89-3.93,4-7.75,6.3-11.44.88-1.41,1.78-2.79,2.71-4.14.21-.32.42-.63.64-.94,12.17-17.5,28.9-31.72,48.53-41.02v-15.32c-22.16,9.2-41.34,23.91-55.78,42.36ZM462.03,118.16c-13.75,0-27.03,1.98-39.57,5.67-4.88,1.41-9.63,3.1-14.26,5.02-22.16,9.2-41.34,23.91-55.78,42.36-3.71,4.74-7.11,9.72-10.15,14.92-.8,1.36-1.58,2.74-2.33,4.14-2.01,3.71-3.85,7.53-5.49,11.44-5.19,12.26-8.57,25.44-9.83,39.21-.07.73-.13,1.47-.18,2.2-.25,3.26-.38,6.56-.38,9.88,0,1.92.04,3.81.13,5.7.01.42.04.85.06,1.27.73,14.06,3.68,27.55,8.52,40.14,1.36,3.58,2.88,7.09,4.55,10.52.82,1.71,1.69,3.4,2.59,5.07,2.6,4.84,5.52,9.51,8.7,13.98,14.78,20.85,35.42,37.44,59.59,47.48,4.63,1.92,9.38,3.61,14.26,5.01,12.54,3.7,25.82,5.68,39.57,5.68,76.08,0,137.97-60.49,137.97-134.85s-61.89-134.84-137.97-134.84ZM462.03,373.91c-13.83,0-27.14-2.23-39.57-6.36-4.9-1.6-9.67-3.53-14.26-5.72-19.63-9.3-36.36-23.52-48.53-41.01-1.16-1.68-2.29-3.38-3.37-5.12-1.04-1.66-2.04-3.35-2.99-5.07-1.91-3.41-3.64-6.92-5.2-10.52-5.42-12.46-8.75-25.98-9.58-40.14-.02-.42-.05-.85-.07-1.27-.06-1.42-.1-2.84-.12-4.27-.01-.48-.01-.95-.01-1.43,0-.51,0-1.02.02-1.52.03-2.82.16-5.61.4-8.36.05-.74.12-1.47.19-2.2,1.43-13.9,5.25-27.1,11.08-39.21,1.89-3.93,4-7.75,6.3-11.44.88-1.41,1.78-2.79,2.71-4.14.21-.32.42-.63.64-.94,12.17-17.5,28.9-31.72,48.53-41.02,4.59-2.19,9.36-4.11,14.26-5.71,12.43-4.13,25.74-6.36,39.57-6.36,68.22,0,123.71,54.23,123.71,120.9s-55.49,120.91-123.71,120.91ZM352.42,171.21c-3.71,4.74-7.11,9.72-10.15,14.92-.8,1.36-1.58,2.74-2.33,4.14-2.01,3.71-3.85,7.53-5.49,11.44-5.19,12.26-8.57,25.44-9.83,39.21-.07.73-.13,1.47-.18,2.2-.25,3.26-.38,6.56-.38,9.88,0,1.92.04,3.81.13,5.7.01.42.04.85.06,1.27.73,14.06,3.68,27.55,8.52,40.14h15.34c-5.42-12.46-8.75-25.98-9.58-40.14-.02-.42-.05-.85-.07-1.27-.06-1.42-.1-2.84-.12-4.27-.01-.48-.01-.95-.01-1.43,0-.51,0-1.02.02-1.52.03-2.82.16-5.61.4-8.36.05-.74.12-1.47.19-2.2,1.43-13.9,5.25-27.1,11.08-39.21,1.89-3.93,4-7.75,6.3-11.44.88-1.41,1.78-2.79,2.71-4.14.21-.32.42-.63.64-.94,12.17-17.5,28.9-31.72,48.53-41.02v-15.32c-22.16,9.2-41.34,23.91-55.78,42.36ZM352.42,171.21c-3.71,4.74-7.11,9.72-10.15,14.92-.8,1.36-1.58,2.74-2.33,4.14-2.01,3.71-3.85,7.53-5.49,11.44-5.19,12.26-8.57,25.44-9.83,39.21-.07.73-.13,1.47-.18,2.2-.25,3.26-.38,6.56-.38,9.88,0,1.92.04,3.81.13,5.7.01.42.04.85.06,1.27.73,14.06,3.68,27.55,8.52,40.14h15.34c-5.42-12.46-8.75-25.98-9.58-40.14-.02-.42-.05-.85-.07-1.27-.06-1.42-.1-2.84-.12-4.27-.01-.48-.01-.95-.01-1.43,0-.51,0-1.02.02-1.52.03-2.82.16-5.61.4-8.36.05-.74.12-1.47.19-2.2,1.43-13.9,5.25-27.1,11.08-39.21,1.89-3.93,4-7.75,6.3-11.44.88-1.41,1.78-2.79,2.71-4.14.21-.32.42-.63.64-.94,12.17-17.5,28.9-31.72,48.53-41.02v-15.32c-22.16,9.2-41.34,23.91-55.78,42.36ZM352.42,171.21c-3.71,4.74-7.11,9.72-10.15,14.92-.8,1.36-1.58,2.74-2.33,4.14-2.01,3.71-3.85,7.53-5.49,11.44-5.19,12.26-8.57,25.44-9.83,39.21-.07.73-.13,1.47-.18,2.2-.25,3.26-.38,6.56-.38,9.88,0,1.92.04,3.81.13,5.7.01.42.04.85.06,1.27.73,14.06,3.68,27.55,8.52,40.14,1.36,3.58,2.88,7.09,4.55,10.52h15.99c-1.91-3.41-3.64-6.92-5.2-10.52-5.42-12.46-8.75-25.98-9.58-40.14-.02-.42-.05-.85-.07-1.27-.06-1.42-.1-2.84-.12-4.27-.01-.48-.01-.95-.01-1.43,0-.51,0-1.02.02-1.52.03-2.82.16-5.61.4-8.36.05-.74.12-1.47.19-2.2,1.43-13.9,5.25-27.1,11.08-39.21,1.89-3.93,4-7.75,6.3-11.44.88-1.41,1.78-2.79,2.71-4.14.21-.32.42-.63.64-.94,12.17-17.5,28.9-31.72,48.53-41.02v-15.32c-22.16,9.2-41.34,23.91-55.78,42.36Z" fill="#fff"/>
        <path d="M500.33,295.9c-5.61,2.53-16.82,6.42-29.74,6.42-13.16,0-25.34-3.7-34.36-11.29-6.58-5.84-11.45-14.22-13.4-25.51h68.97v-9.54h-70.68v-3.51c0-2.73.24-5.65.49-8.18h70.19v-9.74h-68c2.44-10.32,7.31-19.08,14.62-24.73,8.29-7.01,19.01-10.71,32.17-10.71,10.97,0,21.21,2.53,27.3,5.45l4.87-12.85c-6.82-2.92-18.03-6.23-32.41-6.23-19.99,0-35.83,5.84-48.26,16.16-9.74,7.99-17.05,19.28-19.98,32.91h-16.09v9.74h14.39c-.25,2.73-.49,5.65-.49,8.76v2.93h-13.9v9.54h15.12c2.19,14.02,8.28,25.32,17.54,33.49,12.19,11.3,29.73,17.34,49.48,17.34,16.08,0,28.75-4.09,36.31-8.18l-4.14-12.27Z" fill="#fff"/>
      </g>
    </g>
  </g>
</svg>