<?xml version="1.0" encoding="UTF-8"?>
<svg xmlns="http://www.w3.org/2000/svg" version="1.1" viewBox="0 0 600 600">
  <!-- Generator: Adobe Illustrator 28.6.0, SVG Export Plug-In . SVG Version: 1.2.0 Build 709)  -->
  <g>
    <g id="Ebene_2" display="none">
      <rect x="-41.395" y="-12.503" width="705.096" height="672.764" fill="blue"/>
    </g>
    <g id="Ebene_1">
      <g>
        <path d="M300,66.947c37.826,0,74.495,6.836,108.99,20.318,33.228,12.987,63.048,31.559,88.631,55.199,25.463,23.529,45.435,50.887,59.362,81.312,14.356,31.365,21.636,64.675,21.636,99.007s-7.279,67.642-21.636,99.007c-13.926,30.425-33.898,57.783-59.362,81.312-25.583,23.64-55.403,42.212-88.631,55.199-34.495,13.482-71.164,20.318-108.99,20.318s-74.495-6.836-108.99-20.318c-33.228-12.987-63.048-31.558-88.631-55.199-25.463-23.529-45.435-50.887-59.362-81.312-14.356-31.365-21.636-64.675-21.636-99.007s7.279-67.642,21.636-99.007c13.926-30.425,33.898-57.783,59.362-81.312,25.583-23.64,55.403-42.212,88.631-55.199,34.495-13.482,71.164-20.318,108.99-20.318M300,45.564C134.315,45.564,0,169.679,0,322.782s134.315,277.218,300,277.218,300-124.115,300-277.218S465.685,45.564,300,45.564h0Z" fill="#fff"/>
        <rect x="271.198" y="26.262" width="61.886" height="20.75" fill="#fff" stroke="#fff" stroke-miterlimit="10"/>
        <rect x="249.623" y="0" width="105.037" height="31.342" rx="11.535" ry="11.535" fill="#fff" stroke="#fff" stroke-linecap="round" stroke-miterlimit="10" stroke-width="1.413"/>
        <path d="M360.44,246.526c-16.069,26.818-30.418,47.305-41.122,59.708,4.366,4.334,7.028,10.148,7.028,16.547,0,13.45-11.791,24.345-26.346,24.345s-26.346-10.896-26.346-24.345,11.791-24.345,26.346-24.345c1.485,0,2.926.109,4.337.34,5.704-14.958,16.922-37.129,33.065-64.042,29.095-48.5,57.838-85.168,64.204-81.907,6.351,3.261-12.07,45.213-41.166,93.7Z" fill="#fff" stroke="#fff" stroke-miterlimit="10"/>
      </g>
    </g>
    <g id="Ebene_3">
      <path d="M300,98.184c32.996,0,64.996,5.968,95.109,17.737,29.049,11.354,55.129,27.599,77.515,48.285,22.337,20.641,39.866,44.659,52.1,71.388,12.641,27.617,19.051,56.952,19.051,87.188s-6.41,59.57-19.051,87.188c-12.234,26.729-29.763,50.747-52.1,71.388-22.386,20.686-48.466,36.931-77.515,48.285-30.113,11.77-62.113,17.737-95.109,17.737s-64.996-5.968-95.109-17.737c-29.049-11.354-55.129-27.599-77.515-48.285-22.337-20.641-39.866-44.659-52.1-71.388-12.641-27.617-19.051-56.952-19.051-87.188s6.41-59.57,19.051-87.188c12.234-26.729,29.764-50.747,52.1-71.388,22.386-20.686,48.466-36.932,77.515-48.285,30.113-11.77,62.113-17.737,95.109-17.737M300,89.426c-139.47,0-252.533,104.477-252.533,233.356s113.063,233.356,252.533,233.356,252.533-104.477,252.533-233.356-113.063-233.356-252.533-233.356h0Z" fill="#fff"/>
      <g>
        <rect x="291.301" y="97.071" width="13.129" height="12.132" fill="#fff" stroke="#fff" stroke-miterlimit="10" stroke-width=".985"/>
        <polygon points="188.271 135.77 176.901 141.836 170.336 131.33 181.706 125.263 188.271 135.77" fill="#fff" stroke="#fff" stroke-miterlimit="10" stroke-width=".985"/>
        <polygon points="102.049 212.447 95.485 222.954 84.115 216.888 90.679 206.381 102.049 212.447" fill="#fff" stroke="#fff" stroke-miterlimit="10" stroke-width=".985"/>
        <rect x="56.238" y="318.19" width="12.132" height="13.129" transform="translate(-262.45 387.058) rotate(-90)" fill="#fff" stroke="#fff" stroke-miterlimit="10" stroke-width=".985"/>
        <polygon points="97.619 426.026 104.184 436.533 92.814 442.599 86.249 432.092 97.619 426.026" fill="#fff" stroke="#fff" stroke-miterlimit="10" stroke-width=".985"/>
        <polygon points="180.598 505.7 191.968 511.766 185.403 522.273 174.033 516.207 180.598 505.7" fill="#fff" stroke="#fff" stroke-miterlimit="10" stroke-width=".985"/>
        <rect x="295.57" y="536.361" width="13.129" height="12.132" transform="translate(604.269 1084.855) rotate(-180)" fill="#fff" stroke="#fff" stroke-miterlimit="10" stroke-width=".985"/>
        <polygon points="411.729 509.794 423.099 503.728 429.664 514.235 418.294 520.301 411.729 509.794" fill="#fff" stroke="#fff" stroke-miterlimit="10" stroke-width=".985"/>
        <polygon points="497.951 433.117 504.515 422.61 515.885 428.676 509.321 439.183 497.951 433.117" fill="#fff" stroke="#fff" stroke-miterlimit="10" stroke-width=".985"/>
        <rect x="531.63" y="314.245" width="12.132" height="13.129" transform="translate(858.506 -216.886) rotate(90)" fill="#fff" stroke="#fff" stroke-miterlimit="10" stroke-width=".985"/>
        <polygon points="502.381 219.538 495.816 209.031 507.186 202.965 513.751 213.472 502.381 219.538" fill="#fff" stroke="#fff" stroke-miterlimit="10" stroke-width=".985"/>
        <polygon points="419.402 139.864 408.032 133.798 414.597 123.291 425.967 129.357 419.402 139.864" fill="#fff" stroke="#fff" stroke-miterlimit="10" stroke-width=".985"/>
      </g>
    </g>
  </g>
</svg>